<svg id="Layer_1" data-name="Layer 1" xmlns="http://www.w3.org/2000/svg" viewBox="0 0 332.69 347.43"><defs><style>.cls-1{fill:#f7f0f0;}.cls-1,.cls-2{stroke:#f9f9f9;stroke-linecap:round;stroke-miterlimit:10;stroke-width:5.96px;}.cls-2{fill:#f7f5f5;}.cls-3{fill:#f9f9f9;}</style></defs><line class="cls-1" x1="76.18" y1="327.17" x2="87.85" y2="306.95"/><line class="cls-1" x1="241.58" y1="40.69" x2="253.25" y2="20.47"/><line class="cls-1" x1="11.37" y1="262.36" x2="31.58" y2="250.69"/><line class="cls-1" x1="297.85" y1="96.96" x2="318.06" y2="85.29"/><line class="cls-1" x1="11.37" y1="85.29" x2="31.58" y2="96.96"/><line class="cls-1" x1="297.85" y1="250.69" x2="318.06" y2="262.36"/><line class="cls-1" x1="76.18" y1="20.47" x2="87.85" y2="40.69"/><line class="cls-2" x1="241.58" y1="306.95" x2="253.25" y2="327.17"/><path class="cls-3" d="M414.5,122.82h-.09l-5.92,2.8-1.19-5.43,8.25-3.82h6v31h-7Z" transform="translate(-261.63 -115.85)"/><path class="cls-3" d="M431.77,147.38V143l4-3.58c6.82-6.1,10.11-9.59,10.16-13.21,0-2.53-1.48-4.53-5.05-4.53a11.47,11.47,0,0,0-6.63,2.53l-2.06-5.15a17.06,17.06,0,0,1,10.11-3.2c7.06,0,10.88,4.11,10.88,9.69,0,5.24-3.72,9.39-8.25,13.39L442,141.32v.1h11.74v6Z" transform="translate(-261.63 -115.85)"/><path class="cls-3" d="M439,436.91a20.42,20.42,0,0,0-2.81.1c-6.44.53-9.3,3.82-10.12,7.39h.15a9,9,0,0,1,6.58-2.43c5.2,0,9.58,3.67,9.58,10.11a11.09,11.09,0,0,1-11.39,11.21c-8.3,0-12.35-6.15-12.35-13.54,0-5.82,2.14-10.7,5.53-13.83,3.05-2.82,7.11-4.29,11.92-4.53a13.84,13.84,0,0,1,2.91-.05Zm-4,15.55c0-2.86-1.52-5.34-4.63-5.34a4.64,4.64,0,0,0-4.24,2.72,3.91,3.91,0,0,0-.33,1.86c.14,3.29,1.71,6.24,5.06,6.24C433.37,457.94,435,455.61,435,452.46Z" transform="translate(-261.63 -115.85)"/><path class="cls-3" d="M573.92,297.72a16.44,16.44,0,0,0,7.2,1.9c3.76,0,5.67-1.81,5.67-4.1,0-3.1-3-4.48-6.25-4.48h-2.95v-5.2h2.86c2.43,0,5.48-.95,5.48-3.57,0-1.86-1.48-3.24-4.58-3.24a13.75,13.75,0,0,0-6.43,1.85l-1.48-5.24A19.29,19.29,0,0,1,583,273.3c6.58,0,10.25,3.48,10.25,7.73,0,3.28-1.85,5.91-5.67,7.2v.09c3.72.67,6.72,3.48,6.72,7.58,0,5.43-4.81,9.45-12.68,9.45a18.92,18.92,0,0,1-9.21-2.15Z" transform="translate(-261.63 -115.85)"/><path class="cls-3" d="M264.44,295.65a21.93,21.93,0,0,0,3.16,0,12,12,0,0,0,6.09-1.91,9.28,9.28,0,0,0,3.92-5.77l-.09-.05a8.34,8.34,0,0,1-6.25,2.25,9.28,9.28,0,0,1-9.64-9.68c0-6.06,4.87-11.16,11.69-11.16,8,0,11.73,6.1,11.73,13.35,0,6.48-2.06,11.16-5.44,14.3-2.95,2.68-7.06,4.11-11.87,4.3a25.77,25.77,0,0,1-3.3,0Zm4.39-15.59c0,2.67,1.48,5,4.39,5a4.57,4.57,0,0,0,4-2,3.63,3.63,0,0,0,.34-1.85c.05-3.29-1.19-6.54-4.58-6.54C270.6,274.62,268.83,276.82,268.83,280.06Z" transform="translate(-261.63 -115.85)"/></svg>